# File created by Blade
# Date/Time:  Wed Jan 21 19:08:52 2015
# Frame Rate: 120.000 fps
#------------------------------------------------------
:FULLY-SPECIFIED
:DEGREES
3810
root -3.734320 33.611744 -2.367499 10.353676 60.808662 -29.485032
RightUpLeg -126.169004 21.596764 -6.794992
RightLeg 89.558482 -0.000000 -0.000000
RightFoot 12.486319 1.765323 22.298204
RightToeBase 23.345526 -0.000000 -0.000000
LeftUpLeg -34.924621 3.107432 10.724605
LeftLeg 5.412792 -0.000000 -0.000000
LeftFoot -9.077738 -3.542494 6.289275
LeftToeBase 3.091732 -0.000000 -0.000000
Spine -49.824582 -32.973371 48.635790
RightShoulder -33.047813 5.497596 -49.022608
RightArm -16.149591 -4.065857 43.825506
RightForeArm 1.582190 -0.000000 2.726776
RightHand 14.398707 -0.000000 -11.119742
RightHandThumb1 -24.326973 -0.000000 -32.862282
LeftShoulder -8.310964 -2.994475 28.235559
LeftArm 31.427633 50.699673 -78.919345
LeftForeArm 25.033873 -0.000000 25.300400
LeftHand -11.107408 -0.000000 -24.934429
LeftHandThumb1 -26.253704 0.000000 33.147579
Head -18.765217 -56.905050 28.986940
3811
root -3.750045 33.608080 -2.423963 10.787064 60.488196 -29.134740
RightUpLeg -126.143341 21.490709 -6.675756
RightLeg 89.632168 -0.000000 -0.000000
RightFoot 12.503226 1.889739 22.175317
RightToeBase 23.384673 -0.000000 -0.000000
LeftUpLeg -35.053591 3.243861 10.507182
LeftLeg 5.457876 -0.000000 -0.000000
LeftFoot -9.050047 -3.430562 6.314310
LeftToeBase 2.973444 -0.000000 -0.000000
Spine -49.626229 -32.907697 48.505719
RightShoulder -32.914564 5.625407 -48.969026
RightArm -15.869941 -4.354198 43.855690
RightForeArm 1.835194 -0.000000 2.705713
RightHand 14.473736 0.000000 -10.999904
RightHandThumb1 -24.326973 -0.000000 -32.862282
LeftShoulder -8.148309 -3.177389 28.283680
LeftArm 31.542200 50.795556 -78.874581
LeftForeArm 25.227612 -0.000000 25.277648
LeftHand -11.246832 -0.000000 -24.836994
LeftHandThumb1 -26.253704 0.000000 33.147579
Head -18.107605 -56.195368 28.410810
3812
root -3.765121 33.606509 -2.478459 11.136199 60.135584 -28.834949
RightUpLeg -126.062686 21.415578 -6.524631
RightLeg 89.695642 -0.000000 -0.000000
RightFoot 12.547893 2.028365 22.140115
RightToeBase 23.358984 -0.000000 -0.000000
LeftUpLeg -35.133143 3.442470 10.293156
LeftLeg 5.506019 -0.000000 -0.000000
LeftFoot -8.988283 -3.293362 6.474163
LeftToeBase 2.718143 -0.000000 -0.000000
Spine -49.352204 -32.848899 48.333544
RightShoulder -32.825073 5.758910 -48.862640
RightArm -15.536304 -4.649001 43.824304
RightForeArm 2.130708 -0.000000 2.675353
RightHand 14.480151 -0.000000 -11.025247
RightHandThumb1 -24.326973 -0.000000 -32.862282
LeftShoulder -8.042056 -3.221066 28.312082
LeftArm 31.850519 50.867829 -78.703436
LeftForeArm 25.465859 -0.000000 25.326780
LeftHand -11.396966 0.000000 -24.743079
LeftHandThumb1 -26.253704 0.000000 33.147579
Head -17.544022 -55.407430 27.977936
3813
root -3.777823 33.604357 -2.534038 11.524340 59.778309 -28.479983
RightUpLeg -125.970362 21.333840 -6.419864
RightLeg 89.775040 -0.000000 -0.000000
RightFoot 12.477253 2.134461 22.069946
RightToeBase 23.470595 -0.000000 -0.000000
LeftUpLeg -35.193156 3.636743 10.041706
LeftLeg 5.528257 -0.000000 -0.000000
LeftFoot -9.000740 -3.243088 6.358178
LeftToeBase 2.897626 -0.000000 -0.000000
Spine -49.088450 -32.794335 48.149608
RightShoulder -32.728494 5.867032 -48.786585
RightArm -15.293317 -4.646121 43.742238
RightForeArm 2.071864 -0.000000 2.915631
RightHand 14.500326 0.000000 -10.884543
RightHandThumb1 -24.326973 -0.000000 -32.862282
LeftShoulder -7.961768 -3.269153 28.342863
LeftArm 32.027182 50.881305 -78.665836
LeftForeArm 25.890056 -0.000000 25.450164
LeftHand -11.596534 -0.000000 -24.626795
LeftHandThumb1 -26.253704 0.000000 33.147579
Head -16.990702 -54.495570 27.521400
3814
root -3.792648 33.601926 -2.589772 11.930658 59.395950 -28.117920
RightUpLeg -125.900618 21.266492 -6.312999
RightLeg 89.846647 -0.000000 -0.000000
RightFoot 12.554124 2.180007 21.999005
RightToeBase 23.333830 -0.000000 -0.000000
LeftUpLeg -35.274806 3.869987 9.768004
LeftLeg 5.572450 -0.000000 -0.000000
LeftFoot -9.000907 -3.171049 6.379853
LeftToeBase 2.986403 -0.000000 -0.000000
Spine -48.826152 -32.732549 47.953714
RightShoulder -32.620923 5.996360 -48.720806
RightArm -15.041144 -4.672999 43.680367
RightForeArm 2.009987 -0.000000 3.132292
RightHand 14.228339 0.000000 -11.042673
RightHandThumb1 -24.326973 -0.000000 -32.862282
LeftShoulder -7.882567 -3.282603 28.405165
LeftArm 32.046131 50.769789 -78.790034
LeftForeArm 26.238998 -0.000000 25.646632
LeftHand -11.541835 -0.000000 -24.759762
LeftHandThumb1 -26.253704 0.000000 33.147579
Head -16.418552 -53.470345 27.068313
3815
root -3.796863 33.599337 -2.643696 12.155174 59.082451 -27.877855
RightUpLeg -125.721838 21.150468 -6.041962
RightLeg 89.984202 -0.000000 -0.000000
RightFoot 12.534639 2.240252 21.863511
RightToeBase 23.511049 -0.000000 -0.000000
LeftUpLeg -35.245539 3.892096 9.643470
LeftLeg 5.559505 -0.000000 -0.000000
LeftFoot -8.923408 -2.839161 6.570771
LeftToeBase 2.763046 -0.000000 -0.000000
Spine -48.570533 -32.731527 47.855102
RightShoulder -32.523543 6.180426 -48.697006
RightArm -14.806869 -4.707624 43.579093
RightForeArm 1.980680 0.000000 3.322717
RightHand 14.418960 -0.000000 -10.853895
RightHandThumb1 -24.326973 -0.000000 -32.862282
LeftShoulder -7.833045 -3.222989 28.389630
LeftArm 32.309231 50.714604 -78.698553
LeftForeArm 26.433422 -0.000000 25.740116
LeftHand -11.593925 -0.000000 -24.650592
LeftHandThumb1 -26.253704 0.000000 33.147579
Head -15.882375 -52.371073 26.575325
3816
root -3.811411 33.595495 -2.697803 12.596396 58.672253 -27.498454
RightUpLeg -125.670306 21.086843 -5.996890
RightLeg 90.045450 -0.000000 -0.000000
RightFoot 12.566361 2.285403 21.891241
RightToeBase 23.445974 -0.000000 -0.000000
LeftUpLeg -35.329245 4.063993 9.397246
LeftLeg 5.588348 -0.000000 -0.000000
LeftFoot -8.900402 -2.643023 6.600571
LeftToeBase 2.834991 -0.000000 -0.000000
Spine -48.325841 -32.630454 47.629882
RightShoulder -32.438948 6.354257 -48.639988
RightArm -14.489474 -4.862595 43.481723
RightForeArm 1.928695 -0.000000 3.347645
RightHand 14.343597 0.000000 -11.028359
RightHandThumb1 -24.326973 -0.000000 -32.862282
LeftShoulder -7.779523 -3.235866 28.402667
LeftArm 32.457522 50.678302 -78.664623
LeftForeArm 26.663908 -0.000000 25.828774
LeftHand -11.738453 -0.000000 -24.350606
LeftHandThumb1 -26.253704 0.000000 33.147579
Head -15.319209 -51.183827 26.115826
3817
root -3.815127 33.591213 -2.766000 12.962955 58.376283 -27.127419
RightUpLeg -125.526278 20.881498 -5.866805
RightLeg 90.159736 -0.000000 -0.000000
RightFoot 12.591481 2.313749 21.919015
RightToeBase 23.332056 -0.000000 -0.000000
LeftUpLeg -35.393024 4.072061 9.173659
LeftLeg 5.647159 -0.000000 -0.000000
LeftFoot -8.851849 -2.435520 6.611548
LeftToeBase 2.793717 -0.000000 -0.000000
Spine -48.105685 -32.624316 47.496425
RightShoulder -32.362277 6.600842 -48.670597
RightArm -14.225241 -4.996294 43.426460
RightForeArm 1.964124 -0.000000 3.389927
RightHand 14.550807 -0.000000 -11.155955
RightHandThumb1 -24.326973 -0.000000 -32.862282
LeftShoulder -7.700457 -3.330386 28.357905
LeftArm 32.533975 50.566831 -78.696947
LeftForeArm 26.743839 -0.000000 25.853645
LeftHand -11.636414 -0.000000 -24.530295
LeftHandThumb1 -26.253704 0.000000 33.147579
Head -14.826670 -49.857106 25.709328
3818
root -3.828736 33.585137 -2.818864 13.424848 57.956605 -26.736139
RightUpLeg -125.503793 20.807571 -5.871174
RightLeg 90.233511 -0.000000 -0.000000
RightFoot 12.622737 2.332489 21.918983
RightToeBase 23.325029 -0.000000 -0.000000
LeftUpLeg -35.490188 4.240893 8.930383
LeftLeg 5.681547 -0.000000 -0.000000
LeftFoot -8.832317 -2.283403 6.525146
LeftToeBase 2.812116 -0.000000 -0.000000
Spine -47.906543 -32.501290 47.263086
RightShoulder -32.248720 6.778411 -48.671826
RightArm -13.939919 -5.151609 43.371435
RightForeArm 2.068712 -0.000000 3.439144
RightHand 14.449340 -0.000000 -10.959014
RightHandThumb1 -24.326973 -0.000000 -32.862282
LeftShoulder -7.613668 -3.400864 28.332546
LeftArm 32.823466 50.646286 -78.455437
LeftForeArm 26.727556 0.000000 25.833565
LeftHand -11.753476 -0.000000 -24.509767
LeftHandThumb1 -26.253704 0.000000 33.147579
Head -14.148669 -48.577091 25.097831
3819
root -3.849434 33.583292 -2.869883 13.805182 57.505055 -26.446457
RightUpLeg -125.464412 20.785656 -5.849910
RightLeg 90.242175 -0.000000 -0.000000
RightFoot 12.664835 2.305054 21.925078
RightToeBase 23.365985 -0.000000 -0.000000
LeftUpLeg -35.616310 4.494750 8.722343
LeftLeg 5.754965 -0.000000 -0.000000
LeftFoot -8.879207 -2.242088 6.289986
LeftToeBase 3.003531 -0.000000 -0.000000
Spine -47.681563 -32.378426 47.035929
RightShoulder -32.105094 6.927079 -48.590751
RightArm -13.654929 -5.184921 43.281855
RightForeArm 1.958776 -0.000000 3.497514
RightHand 14.555272 -0.000000 -10.969292
RightHandThumb1 -24.326973 -0.000000 -32.862282
LeftShoulder -7.496430 -3.491032 28.320762
LeftArm 33.216091 50.807898 -78.100288
LeftForeArm 26.625515 -0.000000 25.720833
LeftHand -11.566827 -0.000000 -24.750981
LeftHandThumb1 -26.253704 0.000000 33.147579
Head -13.439536 -47.267208 24.559273
3820
root -3.876357 33.579880 -2.922216 14.298318 57.011525 -26.062058
RightUpLeg -125.502070 20.771306 -5.970956
RightLeg 90.235544 -0.000000 -0.000000
RightFoot 12.763868 2.259815 22.005517
RightToeBase 23.291832 -0.000000 -0.000000
LeftUpLeg -35.804252 4.873233 8.400021
LeftLeg 5.870294 -0.000000 -0.000000
LeftFoot -8.870370 -2.304615 6.095844
LeftToeBase 2.893536 -0.000000 -0.000000
Spine -47.486679 -32.235792 46.760641
RightShoulder -31.897039 7.017163 -48.523166
RightArm -13.401379 -5.101710 43.272827
RightForeArm 1.986967 -0.000000 3.605595
RightHand 14.497725 -0.000000 -10.855767
RightHandThumb1 -24.326973 -0.000000 -32.862282
LeftShoulder -7.386176 -3.569108 28.319732
LeftArm 33.599457 50.961760 -77.721453
LeftForeArm 26.622479 -0.000000 25.651076
LeftHand -11.527913 -0.000000 -24.835773
LeftHandThumb1 -26.253704 0.000000 33.147579
Head -12.663832 -45.831630 24.013441
3821
root -3.892135 33.577932 -2.969989 14.682528 56.553964 -25.761961
RightUpLeg -125.465566 20.745823 -5.998338
RightLeg 90.273595 -0.000000 -0.000000
RightFoot 12.759791 2.243183 22.032099
RightToeBase 23.314451 -0.000000 -0.000000
LeftUpLeg -35.905438 5.224928 8.114412
LeftLeg 5.897680 -0.000000 -0.000000
LeftFoot -8.716416 -2.184603 6.223051
LeftToeBase 2.311586 -0.000000 -0.000000
Spine -47.313771 -32.103439 46.546089
RightShoulder -31.677986 7.114799 -48.447866
RightArm -13.129738 -5.159750 43.227298
RightForeArm 2.139385 -0.000000 3.661702
RightHand 14.572322 -0.000000 -10.845259
RightHandThumb1 -24.326973 -0.000000 -32.862282
LeftShoulder -7.257769 -3.686832 28.309474
LeftArm 33.925780 51.186726 -77.386424
LeftForeArm 26.539533 -0.000000 25.613690
LeftHand -11.675830 -0.000000 -24.650316
LeftHandThumb1 -26.253704 0.000000 33.147579
Head -11.921971 -44.442194 23.476512
3822
root -3.912256 33.573612 -3.018732 15.232865 56.130278 -25.268087
RightUpLeg -125.487009 20.640773 -6.158984
RightLeg 90.339060 -0.000000 -0.000000
RightFoot 12.817427 2.224915 22.001598
RightToeBase 23.266378 -0.000000 -0.000000
LeftUpLeg -36.038231 5.615365 7.664290
LeftLeg 5.938904 -0.000000 -0.000000
LeftFoot -8.819834 -2.477445 5.425697
LeftToeBase 3.081835 -0.000000 -0.000000
Spine -47.192726 -32.010039 46.219269
RightShoulder -31.442971 7.132185 -48.348650
RightArm -12.882373 -5.047158 43.193223
RightForeArm 2.203030 0.000000 3.791668
RightHand 14.612870 -0.000000 -10.693320
RightHandThumb1 -24.326973 -0.000000 -32.862282
LeftShoulder -7.079113 -3.754839 28.371440
LeftArm 34.237185 51.354097 -77.107338
LeftForeArm 26.434561 -0.000000 25.630779
LeftHand -11.737707 -0.000000 -24.690245
LeftHandThumb1 -26.253704 0.000000 33.147579
Head -11.153920 -43.072393 22.950526
